<svg width="321" height="165" viewBox="0 0 321 165" fill="none" xmlns="http://www.w3.org/2000/svg">
<g clip-path="url(#clip0_209_41)">
<path d="M193.146 34.2743V66.8602C214.161 67.6422 224.932 78.6345 225.458 99.8371H193.146V165H258.148V99.8371C258.148 61.1226 236.481 39.2684 193.146 34.2743ZM238.209 146.623H213.093V121.297H238.209V146.623Z" fill="#141414"/>
<path d="M321 34.2743H255.998V99.4372C255.998 138.164 277.665 160.018 321 165V132.405C299.985 131.629 289.226 120.64 288.723 99.4372H321.026L321 34.2743ZM301.053 79.5942H275.936V54.2506H301.053V79.5942Z" fill="#141414"/>
<path d="M177.209 103.027C174.869 100.213 170.352 97.9621 163.659 96.2737C171.084 95.5687 176.057 93.4538 178.578 89.9289C181.1 86.404 182.363 79.532 182.369 69.3128C182.369 58.0865 180.582 49.9141 177.007 44.7956C173.785 39.8951 168.812 36.4515 163.133 35.1896C157.464 33.9455 146.62 33.3235 130.601 33.3235H106.564V165H140.518V105.631C145.198 105.631 148.085 106.469 149.179 108.146C150.273 109.822 150.826 114.188 150.838 121.244V165H182.369V130.273C182.369 119.645 182.077 113.152 181.492 110.794C180.656 107.913 179.192 105.259 177.209 103.027ZM152.848 86.4544H137.718V54.5261H152.848V86.4544Z" fill="#141414"/>
<path d="M96.5334 72.3341V57.2986C96.5334 42.4882 95.3165 31.5966 92.8827 24.6238C90.4489 17.6511 85.3209 11.8128 77.4988 7.109C69.7118 2.36967 59.7922 0 47.7402 0C38.8884 0 31.0487 1.5077 24.2211 4.5231C17.3936 7.53851 12.055 11.6884 8.20534 16.9727C4.54501 21.7756 2.15032 27.4417 1.24616 33.439C0.46219 39.1558 0.0643556 47.7133 0.0526546 59.1114L0 105.382C0 120.898 1.24616 132.521 3.73848 140.252C6.23079 147.983 11.3646 154.037 19.1399 158.415C26.8919 162.787 36.75 164.982 48.7143 165C60.2222 165 69.9048 162.432 77.7621 157.296C85.6193 152.159 90.7063 146.158 93.0231 139.292C95.3224 132.444 96.4925 120.821 96.5334 104.422V98.2553H55.8753V138.243H40.7108V26.8009H55.8402V72.2897L96.5334 72.3341Z" fill="#141414"/>
</g>
<defs>
<clipPath id="clip0_209_41">
<rect width="321" height="165" fill="white"/>
</clipPath>
</defs>
</svg>
