<svg width="255" height="96" viewBox="0 0 255 96" fill="none" xmlns="http://www.w3.org/2000/svg">
<rect x="-43" width="298" height="96" rx="48" fill="white"/>
<path d="M54.5938 56.0938H43.0625L40.4141 65H36.0078L47 30.875H50.6797L61.6953 65H57.2891L54.5938 56.0938ZM44.1875 52.3906H53.4922L48.8281 36.875L44.1875 52.3906ZM88.0625 50.9141C88.0625 53.9141 87.6562 56.4531 86.8438 58.5312C86.0469 60.5938 84.9062 62.2031 83.4219 63.3594L88.5078 67.9297L85.6016 70.7656L79.4609 65.1641C78.4766 65.3672 77.5234 65.4688 76.6016 65.4688C73.0547 65.4688 70.2578 64.2266 68.2109 61.7422C66.1797 59.2422 65.1406 55.7344 65.0938 51.2188V45.0078C65.0938 40.4141 66.1016 36.8359 68.1172 34.2734C70.1328 31.6953 72.9453 30.4062 76.5547 30.4062C80.1953 30.4062 83.0156 31.6641 85.0156 34.1797C87.0156 36.6797 88.0312 40.2266 88.0625 44.8203V50.9141ZM83.7734 44.9609C83.7734 41.3516 83.1797 38.6719 81.9922 36.9219C80.8203 35.1562 79.0078 34.2734 76.5547 34.2734C74.2109 34.2734 72.4297 35.1641 71.2109 36.9453C70.0078 38.7266 69.3984 41.3516 69.3828 44.8203V50.9141C69.3828 54.4141 69.9844 57.0781 71.1875 58.9062C72.4062 60.7344 74.2109 61.6484 76.6016 61.6484C78.9766 61.6484 80.75 60.8203 81.9219 59.1641C83.0938 57.5078 83.7109 54.9531 83.7734 51.5V44.9609ZM115.227 30.875V55.1328C115.195 58.3672 114.258 60.8984 112.414 62.7266C110.57 64.5547 108 65.4688 104.703 65.4688C101.328 65.4688 98.75 64.5781 96.9688 62.7969C95.1875 61 94.2812 58.4453 94.25 55.1328V30.875H98.5156V54.9688C98.5156 57.2656 99 58.9844 99.9688 60.125C100.953 61.25 102.531 61.8125 104.703 61.8125C106.891 61.8125 108.469 61.25 109.438 60.125C110.422 58.9844 110.914 57.2656 110.914 54.9688V30.875H115.227ZM137.234 56.0938H125.703L123.055 65H118.648L129.641 30.875H133.32L144.336 65H139.93L137.234 56.0938ZM126.828 52.3906H136.133L131.469 36.875L126.828 52.3906Z" fill="black"/>
<path d="M175.796 67.1957C171.518 67.1957 167.416 65.5334 164.391 62.5744C161.366 59.6154 159.667 55.6021 159.667 51.4174C159.667 44.5105 165.13 38.9861 169.935 33.9233L175.796 27.75L181.656 33.9233C186.461 38.9881 191.925 44.5125 191.925 51.4174C191.925 55.6021 190.225 59.6154 187.2 62.5744C184.176 65.5334 180.073 67.1957 175.796 67.1957Z" fill="#2ECDFF" stroke="#2ECDFF" stroke-width="3" stroke-linecap="round" stroke-linejoin="round"/>
</svg>
