<svg width="161" height="161" viewBox="0 0 161 161" fill="none" xmlns="http://www.w3.org/2000/svg">
<path d="M125.177 86.5481C122.799 83.9474 118.701 83.9474 116.323 86.5481L114.397 88.6535C112.298 90.9486 112.3 94.4672 114.403 96.7591L124.104 107.333H36.8958L46.5969 96.7591C48.6996 94.4672 48.7022 90.9486 46.6031 88.6535L44.6707 86.5407C42.2944 83.9427 38.2022 83.9395 35.822 86.534L20.125 103.644V134.167C20.125 141.546 26.1625 147.583 33.5417 147.583H127.458C134.838 147.583 140.875 141.546 140.875 134.167V103.711L125.177 86.5481Z" fill="white"/>
<path d="M71.0414 96.7342C76.2739 102.034 84.7935 102.101 90.093 96.8012L123.501 63.3937C128.733 58.1613 128.733 49.6417 123.501 44.4092L99.753 20.7288C94.5205 15.4963 86.001 15.4963 80.7685 20.7288L47.5622 53.935C45.0544 56.4399 43.6397 59.8354 43.6272 63.3799C43.6146 66.9244 45.0051 70.3299 47.4951 72.8525L71.0414 96.7342ZM79.5 94.5L113.975 53.8679L80.8355 87.0071L57.1551 63.3267L79.5 94.5Z" fill="white"/>
</svg>
