<svg width="141" height="141" viewBox="0 0 141 141" fill="none" xmlns="http://www.w3.org/2000/svg">
<path d="M117.5 11.75H47C43.8837 11.75 40.895 12.9879 38.6915 15.1915C36.4879 17.395 35.25 20.3837 35.25 23.5V94C35.25 97.1163 36.4879 100.105 38.6915 102.309C40.895 104.512 43.8837 105.75 47 105.75H117.5C120.616 105.75 123.605 104.512 125.809 102.309C128.012 100.105 129.25 97.1163 129.25 94V23.5C129.25 20.3837 128.012 17.395 125.809 15.1915C123.605 12.9879 120.616 11.75 117.5 11.75ZM76.7686 85.0759L57.5339 65.8411L65.8411 57.5339L75.9814 67.6741L101.238 37.365L110.268 44.8909L76.7686 85.0759Z" fill="white"/>
<path d="M23.5 129.25H88.125V117.5H23.5V47H11.75V117.5C11.75 123.98 17.0199 129.25 23.5 129.25Z" fill="white"/>
</svg>
