<svg width="62" height="62" viewBox="0 0 62 62" fill="none" xmlns="http://www.w3.org/2000/svg">
<path d="M31 22.9291C26.5558 22.9291 22.9291 26.5559 22.9291 31C22.9291 35.4441 26.5558 39.0709 31 39.0709C35.4441 39.0709 39.0709 35.4441 39.0709 31C39.0709 26.5559 35.4441 22.9291 31 22.9291ZM55.2066 31C55.2066 27.6578 55.2369 24.3459 55.0492 21.0098C54.8615 17.1348 53.9775 13.6957 51.1439 10.8621C48.3043 8.02245 44.8713 7.14453 40.9963 6.95683C37.6541 6.76913 34.3422 6.79941 31.006 6.79941C27.6638 6.79941 24.3519 6.76913 21.0158 6.95683C17.1408 7.14453 13.7017 8.02851 10.8681 10.8621C8.0285 13.7018 7.15057 17.1348 6.96287 21.0098C6.77518 24.3519 6.80545 27.6639 6.80545 31C6.80545 34.3361 6.77518 37.6541 6.96287 40.9902C7.15057 44.8652 8.03455 48.3043 10.8681 51.1379C13.7078 53.9775 17.1408 54.8555 21.0158 55.0432C24.358 55.2309 27.6699 55.2006 31.006 55.2006C34.3482 55.2006 37.6601 55.2309 40.9963 55.0432C44.8713 54.8555 48.3103 53.9715 51.1439 51.1379C53.9836 48.2982 54.8615 44.8652 55.0492 40.9902C55.2429 37.6541 55.2066 34.3422 55.2066 31ZM31 43.4182C24.1279 43.4182 18.5818 37.8721 18.5818 31C18.5818 24.1279 24.1279 18.5818 31 18.5818C37.872 18.5818 43.4181 24.1279 43.4181 31C43.4181 37.8721 37.872 43.4182 31 43.4182ZM43.9267 20.9734C42.3222 20.9734 41.0265 19.6777 41.0265 18.0732C41.0265 16.4687 42.3222 15.173 43.9267 15.173C45.5312 15.173 46.8269 16.4687 46.8269 18.0732C46.8274 18.4542 46.7527 18.8316 46.6071 19.1837C46.4616 19.5357 46.2479 19.8556 45.9785 20.1251C45.7091 20.3945 45.3892 20.6081 45.0372 20.7536C44.6851 20.8992 44.3077 20.9739 43.9267 20.9734Z" fill="white"/>
</svg>
