<svg width="150" height="150" viewBox="0 0 150 150" fill="none" xmlns="http://www.w3.org/2000/svg">
<path d="M68.75 49.9999C68.75 46.5624 65.9375 43.7499 62.5 43.7499H18.75C15.3125 43.7499 12.5 46.5624 12.5 49.9999C12.5 53.4374 15.3125 56.2499 18.75 56.2499H62.5C65.9375 56.2499 68.75 53.4374 68.75 49.9999ZM68.75 99.9999C68.75 96.5624 65.9375 93.7499 62.5 93.7499H18.75C15.3125 93.7499 12.5 96.5624 12.5 99.9999C12.5 103.437 15.3125 106.25 18.75 106.25H62.5C65.9375 106.25 68.75 103.437 68.75 99.9999ZM106.562 64.3124C105.984 64.8918 105.297 65.3514 104.541 65.6651C103.785 65.9787 102.975 66.1401 102.156 66.1401C101.338 66.1401 100.527 65.9787 99.7711 65.6651C99.015 65.3514 98.3282 64.8918 97.75 64.3124L84.5 51.0624C83.3314 49.8938 82.6749 48.3088 82.6749 46.6561C82.6749 45.8378 82.836 45.0275 83.1492 44.2715C83.4624 43.5154 83.9214 42.8285 84.5 42.2499C85.0786 41.6712 85.7656 41.2122 86.5216 40.8991C87.2776 40.5859 88.0879 40.4247 88.9062 40.4247C90.5589 40.4247 92.1439 41.0813 93.3125 42.2499L102.125 51.0624L124.25 28.9374C125.419 27.7688 127.004 27.1122 128.656 27.1122C130.309 27.1122 131.894 27.7688 133.062 28.9374C134.231 30.106 134.888 31.691 134.888 33.3436C134.888 34.9963 134.231 36.5813 133.062 37.7499L106.562 64.3124ZM106.562 114.312C105.984 114.892 105.297 115.351 104.541 115.665C103.785 115.979 102.975 116.14 102.156 116.14C101.338 116.14 100.527 115.979 99.7711 115.665C99.015 115.351 98.3282 114.892 97.75 114.312L84.5 101.062C83.3314 99.8938 82.6749 98.3088 82.6749 96.6561C82.6749 95.0035 83.3314 93.4185 84.5 92.2499C85.6686 91.0813 87.2536 90.4247 88.9062 90.4247C90.5589 90.4247 92.1439 91.0813 93.3125 92.2499L102.125 101.062L124.25 78.9374C124.829 78.3587 125.516 77.8997 126.272 77.5866C127.028 77.2734 127.838 77.1122 128.656 77.1122C129.475 77.1122 130.285 77.2734 131.041 77.5866C131.797 77.8997 132.484 78.3587 133.062 78.9374C133.641 79.516 134.1 80.203 134.413 80.959C134.726 81.715 134.888 82.5253 134.888 83.3436C134.888 84.1619 134.726 84.9722 134.413 85.7283C134.1 86.4843 133.641 87.1712 133.062 87.7499L106.562 114.312Z" fill="white"/>
</svg>
