<svg width="162" height="162" viewBox="0 0 162 162" fill="none" xmlns="http://www.w3.org/2000/svg">
<path d="M144.923 29.3625L135.878 25.5825V86.535L152.28 46.98C155.048 40.095 151.875 32.1975 144.923 29.3625ZM13.2975 54.3375L46.7775 135C47.7634 137.454 49.4451 139.567 51.6157 141.078C53.7863 142.589 56.3513 143.432 58.995 143.505C60.75 143.505 62.5725 143.168 64.3275 142.425L114.075 121.837C119.138 119.745 122.243 114.75 122.378 109.755C122.445 108 122.108 106.042 121.5 104.287L87.75 23.625C86.796 21.1546 85.1204 19.0287 82.9413 17.5238C80.7623 16.0189 78.1807 15.2048 75.5325 15.1875C73.7775 15.1875 72.0225 15.5925 70.335 16.2L20.655 36.7875C17.3527 38.1398 14.7225 40.7482 13.3428 44.0393C11.9632 47.3303 11.9469 51.0345 13.2975 54.3375ZM122.31 28.6875C122.31 25.1071 120.888 21.6733 118.356 19.1416C115.824 16.6098 112.39 15.1875 108.81 15.1875H99.0225L122.31 71.4825" fill="white"/>
</svg>
