<svg width="707" height="391" viewBox="0 0 707 391" fill="none" xmlns="http://www.w3.org/2000/svg">
<g clip-path="url(#clip0_11_17)">
<path d="M425.402 81.2197V158.438C471.688 160.291 495.41 186.34 496.57 236.584H425.402V391H568.569V236.584C568.569 144.842 520.847 93.0541 425.402 81.2197ZM524.654 347.453H469.336V287.438H524.654V347.453Z" fill="white"/>
<path d="M707 81.2197H563.833V235.636C563.833 327.406 611.556 379.194 707 391V313.76C660.715 311.921 637.018 285.88 635.91 235.636H707.058L707 81.2197ZM663.066 188.614H607.748V128.557H663.066V188.614Z" fill="white"/>
<path d="M390.302 244.143C385.147 237.475 375.2 232.14 360.458 228.139C376.81 226.469 387.763 221.457 393.317 213.104C398.871 204.751 401.654 188.467 401.667 164.25C401.667 137.647 397.73 118.281 389.857 106.152C382.761 94.5393 371.806 86.3789 359.299 83.3886C346.812 80.4405 322.929 78.9665 287.648 78.9665H234.707V391H309.489V250.313C319.797 250.313 326.157 252.3 328.566 256.273C330.976 260.245 332.193 270.592 332.219 287.312V391H401.667V308.706C401.667 283.521 401.022 268.135 399.734 262.548C397.893 255.722 394.669 249.433 390.302 244.143ZM336.645 204.871H303.323V129.21H336.645V204.871Z" fill="white"/>
<path d="M212.614 171.41V135.78C212.614 100.684 209.934 74.8743 204.573 58.351C199.213 41.8277 187.919 27.9927 170.691 16.8462C153.54 5.6154 131.692 0 105.147 0C85.6513 0 68.3844 3.5728 53.3468 10.7184C38.3092 17.864 26.551 27.6979 18.0722 40.2203C10.0104 51.6016 4.73606 65.0286 2.74466 79.2403C1.01797 92.7874 0.141743 113.066 0.115971 140.076L0 249.724C0 286.49 2.74466 314.034 8.23397 332.354C13.7233 350.674 25.0305 365.022 42.1556 375.396C59.2291 385.757 80.9416 390.958 107.293 391C132.639 391 153.965 384.914 171.27 372.743C188.576 360.572 199.78 346.351 204.883 330.08C209.947 313.852 212.524 286.308 212.614 247.449V232.835H123.065V327.595H89.6652V63.5101H122.988V171.305L212.614 171.41Z" fill="white"/>
</g>
<defs>
<clipPath id="clip0_11_17">
<rect width="707" height="391" fill="white"/>
</clipPath>
</defs>
</svg>
