<svg width="357" height="339" viewBox="0 0 357 339" fill="none" xmlns="http://www.w3.org/2000/svg">
<path fill-rule="evenodd" clip-rule="evenodd" d="M138.25 50.375C138.25 61.2826 129.408 70.125 118.5 70.125C107.592 70.125 98.75 61.2826 98.75 50.375C98.75 39.4674 107.592 30.625 118.5 30.625C129.408 30.625 138.25 39.4674 138.25 50.375ZM148.125 80L158 139.25H143.188V208.375H123.438V149.125H113.563V208.375H93.8126V149.125L93.8125 122.321L83.9375 139.25H79L49.375 208.375H39.5L69.125 139.25H59.25L93.8125 80H113.562H118.5H148.125Z" fill="white"/>
<path fill-rule="evenodd" clip-rule="evenodd" d="M203.292 69.4167C214.245 69.4167 223.125 60.537 223.125 49.5833C223.125 38.6297 214.245 29.75 203.292 29.75C192.338 29.75 183.458 38.6297 183.458 49.5833C183.458 60.537 192.338 69.4167 203.292 69.4167ZM228.083 138.833L228.083 208.25H208.25V148.75H198.333V208.25H178.5V148.75V138.833H163.625L173.542 79.3333H223.125H228.083H247.917H252.875H272.708H277.667H297.5L332.208 138.833H322.292L352.042 208.25H342.125L312.375 138.833H307.417L297.5 121.833L297.5 148.75V208.25H277.667V148.75H267.75V208.25H247.917L247.917 138.833V99.1667H228.083V138.833ZM272.708 69.4167C261.755 69.4167 252.875 60.537 252.875 49.5833C252.875 38.6297 261.755 29.75 272.708 29.75C283.662 29.75 292.542 38.6297 292.542 49.5833C292.542 60.537 283.662 69.4167 272.708 69.4167Z" fill="white"/>
<path d="M97.1875 309.188H74.125L68.8281 327H60.0156L82 258.75H89.3594L111.391 327H102.578L97.1875 309.188ZM76.375 301.781H94.9844L85.6562 270.75L76.375 301.781ZM164.125 298.828C164.125 304.828 163.312 309.906 161.688 314.062C160.094 318.188 157.812 321.406 154.844 323.719L165.016 332.859L159.203 338.531L146.922 327.328C144.953 327.734 143.047 327.938 141.203 327.938C134.109 327.938 128.516 325.453 124.422 320.484C120.359 315.484 118.281 308.469 118.188 299.438V287.016C118.188 277.828 120.203 270.672 124.234 265.547C128.266 260.391 133.891 257.812 141.109 257.812C148.391 257.812 154.031 260.328 158.031 265.359C162.031 270.359 164.062 277.453 164.125 286.641V298.828ZM155.547 286.922C155.547 279.703 154.359 274.344 151.984 270.844C149.641 267.312 146.016 265.547 141.109 265.547C136.422 265.547 132.859 267.328 130.422 270.891C128.016 274.453 126.797 279.703 126.766 286.641V298.828C126.766 305.828 127.969 311.156 130.375 314.812C132.812 318.469 136.422 320.297 141.203 320.297C145.953 320.297 149.5 318.641 151.844 315.328C154.188 312.016 155.422 306.906 155.547 300V286.922ZM218.453 258.75V307.266C218.391 313.734 216.516 318.797 212.828 322.453C209.141 326.109 204 327.938 197.406 327.938C190.656 327.938 185.5 326.156 181.938 322.594C178.375 319 176.562 313.891 176.5 307.266V258.75H185.031V306.938C185.031 311.531 186 314.969 187.938 317.25C189.906 319.5 193.062 320.625 197.406 320.625C201.781 320.625 204.938 319.5 206.875 317.25C208.844 314.969 209.828 311.531 209.828 306.938V258.75H218.453ZM262.469 309.188H239.406L234.109 327H225.297L247.281 258.75H254.641L276.672 327H267.859L262.469 309.188ZM241.656 301.781H260.266L250.938 270.75L241.656 301.781Z" fill="white"/>
<path d="M313.418 326.793C305.793 326.793 298.48 323.837 293.088 318.577C287.696 313.316 284.667 306.182 284.667 298.742C284.667 286.463 294.406 276.642 302.971 267.641L313.418 256.667L323.866 267.641C332.43 276.646 342.17 286.467 342.17 298.742C342.17 306.182 339.141 313.316 333.749 318.577C328.357 323.837 321.044 326.793 313.418 326.793Z" fill="#2ECDFF" stroke="#2ECDFF" stroke-width="3" stroke-linecap="round" stroke-linejoin="round"/>
</svg>
