<svg width="35" height="35" viewBox="0 0 35 35" fill="none" xmlns="http://www.w3.org/2000/svg">
<g clip-path="url(#clip0_18_275)">
<path d="M13.125 0.608473C13.3385 0.867938 13.4693 1.18547 13.5005 1.52005C13.5317 1.85463 13.4619 2.19088 13.3 2.48535C12.0353 4.80732 11.3749 7.41005 11.3794 10.0541C11.3794 18.85 18.55 25.9725 27.3875 25.9725C28.5403 25.9725 29.6625 25.8522 30.7409 25.6225C31.0715 25.5509 31.4159 25.5783 31.731 25.7013C32.0461 25.8242 32.318 26.0372 32.5128 26.3138C32.7184 26.6013 32.8232 26.9488 32.811 27.302C32.7987 27.6553 32.67 27.9946 32.445 28.2672C30.7293 30.3747 28.5649 32.0728 26.1096 33.2376C23.6544 34.4025 20.9701 35.0047 18.2525 35.0004C8.16813 35.0004 0 26.876 0 16.866C0 9.33222 4.62438 2.87035 11.2088 0.131598C11.5367 -0.00702003 11.9009 -0.0354707 12.2464 0.0505196C12.5919 0.13651 12.9002 0.332298 13.125 0.608473Z" fill="white"/>
</g>
<defs>
<clipPath id="clip0_18_275">
<rect width="35" height="35" fill="white"/>
</clipPath>
</defs>
</svg>
