<svg width="100" height="100" viewBox="0 0 100 100" fill="none" xmlns="http://www.w3.org/2000/svg">
<circle cx="50" cy="50" r="50" fill="white"/>
<path d="M67.7812 71H40.9688V64.75L53.2812 49.0938C54.8438 46.9271 55.9896 45.0312 56.7188 43.4062C57.4688 41.7604 57.8438 40.1875 57.8438 38.6875C57.8438 36.6667 57.4896 35.0833 56.7812 33.9375C56.0938 32.7917 55.0938 32.2188 53.7812 32.2188C52.3438 32.2188 51.1979 32.8854 50.3438 34.2188C49.5104 35.5521 49.0938 37.4271 49.0938 39.8438H40.2188C40.2188 37.0521 40.7917 34.5 41.9375 32.1875C43.1042 29.875 44.7292 28.0833 46.8125 26.8125C48.9167 25.5208 51.2917 24.875 53.9375 24.875C58 24.875 61.1458 26 63.375 28.25C65.625 30.4792 66.75 33.6562 66.75 37.7812C66.75 40.3438 66.125 42.9479 64.875 45.5938C63.6458 48.2188 61.4062 51.4583 58.1562 55.3125L52.3125 63.6562H67.7812V71Z" fill="black"/>
</svg>
