<svg width="100" height="100" viewBox="0 0 100 100" fill="none" xmlns="http://www.w3.org/2000/svg">
<circle cx="50" cy="50" r="50" fill="white"/>
<path d="M35.875 48.625L38.125 25.5H60.1562V33.0625H45.375L44.5625 42.8125C46.2708 41.6667 48.0312 41.0938 49.8438 41.0938C53.5938 41.0938 56.4792 42.4271 58.5 45.0938C60.5417 47.7604 61.5625 51.5312 61.5625 56.4062C61.5625 60.9688 60.3542 64.6458 57.9375 67.4375C55.5208 70.2292 52.2917 71.625 48.25 71.625C45.8542 71.625 43.6354 71.0625 41.5938 69.9375C39.5521 68.7917 37.9375 67.2083 36.75 65.1875C35.5833 63.1667 34.9896 60.875 34.9688 58.3125H43.7188C43.8646 60.2083 44.3333 61.6771 45.125 62.7188C45.9167 63.7604 46.9375 64.2812 48.1875 64.2812C49.6458 64.2812 50.7708 63.5833 51.5625 62.1875C52.3542 60.7708 52.75 58.6667 52.75 55.875C52.75 53.25 52.2708 51.2708 51.3125 49.9375C50.375 48.6042 49.0521 47.9375 47.3438 47.9375C45.6771 47.9375 44.3854 48.5104 43.4688 49.6562L42.9062 50.4375L35.875 48.625Z" fill="black"/>
</svg>
