<svg width="100" height="100" viewBox="0 0 100 100" fill="none" xmlns="http://www.w3.org/2000/svg">
<circle cx="50" cy="50" r="50" fill="white"/>
<path d="M48.8438 44.2188H53.125C54.75 44.2188 55.9375 43.6562 56.6875 42.5312C57.4583 41.3854 57.8438 39.8646 57.8438 37.9688C57.8438 36.1562 57.4479 34.75 56.6562 33.75C55.8854 32.7292 54.8438 32.2188 53.5312 32.2188C52.3021 32.2188 51.2917 32.6979 50.5 33.6562C49.7292 34.6146 49.3438 35.8229 49.3438 37.2812H40.5C40.5 34.9062 41.0417 32.7812 42.125 30.9062C43.2292 29.0104 44.7604 27.5312 46.7188 26.4688C48.6979 25.4062 50.8854 24.875 53.2812 24.875C57.4688 24.875 60.75 26.0312 63.125 28.3438C65.5 30.6562 66.6875 33.8229 66.6875 37.8438C66.6875 39.9062 66.1458 41.8229 65.0625 43.5938C64 45.3438 62.5938 46.6875 60.8438 47.625C62.9896 48.5417 64.5833 49.9167 65.625 51.75C66.6875 53.5833 67.2188 55.75 67.2188 58.25C67.2188 62.2917 65.9271 65.5312 63.3438 67.9688C60.7812 70.4062 57.4062 71.625 53.2188 71.625C49.3229 71.625 46.1562 70.4271 43.7188 68.0312C41.3021 65.6146 40.0938 62.4479 40.0938 58.5312H48.9375C48.9375 60.1562 49.3646 61.5208 50.2188 62.625C51.0729 63.7292 52.1562 64.2812 53.4688 64.2812C54.9896 64.2812 56.1875 63.7188 57.0625 62.5938C57.9583 61.4688 58.4062 59.9688 58.4062 58.0938C58.4062 53.6146 56.6667 51.3646 53.1875 51.3438H48.8438V44.2188Z" fill="black"/>
</svg>
